<?xml version="1.0" standalone="no"?>
<!DOCTYPE svg PUBLIC "-//W3C//DTD SVG 20010904//EN"
 "http://www.w3.org/TR/2001/REC-SVG-20010904/DTD/svg10.dtd">
<svg version="1.0" xmlns="http://www.w3.org/2000/svg"
 width="134.000000pt" height="134.000000pt" viewBox="0 0 134.000000 134.000000"
 preserveAspectRatio="xMidYMid meet">

<g transform="translate(0.000000,134.000000) scale(0.100000,-0.100000)"
fill="#000000" stroke="none">
<path d="M485 985 c-14 -13 -25 -31 -25 -39 0 -8 -12 -21 -27 -28 -22 -10 -29
-21 -31 -52 -3 -38 18 -76 42 -76 6 0 0 7 -12 16 -22 15 -29 54 -16 88 8 20
44 21 44 2 0 -20 27 -39 46 -32 15 6 14 10 -9 34 -33 34 -34 52 -4 80 28 27
49 28 70 4 21 -23 21 -41 2 -66 -20 -26 -20 -76 0 -76 21 0 38 37 33 72 -10
63 85 77 143 22 l28 -27 -20 -28 c-28 -40 -37 -99 -15 -99 22 0 57 59 54 89
-4 34 17 37 47 7 25 -26 32 -60 16 -85 -15 -23 -1 -41 30 -41 16 0 38 -9 50
-21 18 -18 20 -28 14 -63 -5 -22 -7 -58 -6 -79 1 -31 -3 -39 -24 -49 -41 -19
-68 1 -93 69 -34 94 -70 136 -153 177 -88 44 -135 47 -178 11 -31 -27 -52 -74
-49 -112 1 -12 6 -19 11 -16 4 3 6 11 3 19 -3 8 2 33 10 55 18 43 55 69 101
69 44 0 144 -53 184 -96 30 -34 36 -48 38 -92 1 -34 -4 -60 -14 -76 -10 -15
-15 -38 -12 -58 l4 -33 2 35 c1 19 8 44 16 54 8 11 15 36 16 55 l1 36 9 -35
c11 -40 51 -80 80 -80 41 0 60 19 58 58 -1 20 2 58 6 84 6 42 5 49 -18 72 -15
15 -38 26 -52 26 -25 0 -26 1 -20 45 7 40 4 47 -23 75 -17 16 -38 30 -47 30
-9 0 -30 13 -46 30 -35 34 -89 48 -126 31 -22 -10 -28 -8 -49 14 -29 32 -58
32 -89 0z m94 -117 c-18 -33 -24 -4 -8 35 12 28 14 29 17 10 2 -12 -2 -32 -9
-45z m-84 21 c11 -17 -1 -21 -15 -4 -8 9 -8 15 -2 15 6 0 14 -5 17 -11z m271
-63 c-15 -37 -36 -49 -36 -21 0 9 7 30 16 47 23 44 40 22 20 -26z"/>
<path d="M383 658 c-27 -30 -43 -62 -43 -85 1 -10 7 -1 15 20 7 22 23 50 36
63 12 13 20 24 17 24 -2 0 -14 -10 -25 -22z"/>
<path d="M671 661 c-17 -11 -10 -106 9 -124 10 -10 11 -8 5 8 -5 11 -9 40 -9
65 -1 41 1 45 23 45 23 0 25 -4 26 -45 1 -25 -4 -54 -12 -65 -10 -14 -11 -40
-7 -97 5 -54 3 -78 -4 -78 -6 0 -13 26 -15 63 l-3 62 -2 -67 c-2 -63 -1 -68
19 -68 21 0 22 3 16 83 -5 64 -3 86 8 101 15 20 20 81 9 110 -7 17 -41 21 -63
7z"/>
<path d="M409 643 c-13 -16 -12 -17 4 -4 9 7 17 15 17 17 0 8 -8 3 -21 -13z"/>
<path d="M750 626 c0 -22 6 -36 16 -40 14 -5 16 -1 10 25 -3 17 -6 35 -6 40 0
5 -4 9 -10 9 -5 0 -10 -15 -10 -34z"/>
<path d="M705 640 c3 -5 8 -10 11 -10 2 0 4 5 4 10 0 6 -5 10 -11 10 -5 0 -7
-4 -4 -10z"/>
<path d="M341 504 c0 -11 3 -14 6 -6 3 7 2 16 -1 19 -3 4 -6 -2 -5 -13z"/>
<path d="M743 450 c0 -36 2 -50 4 -32 2 17 2 47 0 65 -2 17 -4 3 -4 -33z"/>
<path d="M350 471 c0 -7 17 -31 39 -52 21 -22 45 -39 52 -39 8 0 -1 9 -19 20
-18 11 -41 34 -52 52 -11 18 -20 27 -20 19z"/>
<path d="M772 411 c-2 -34 -5 -42 -17 -37 -8 3 -15 1 -15 -4 0 -15 30 -12 36
4 3 8 4 29 1 48 -3 29 -4 28 -5 -11z"/>
<path d="M468 373 c6 -2 18 -2 25 0 6 3 1 5 -13 5 -14 0 -19 -2 -12 -5z"/>
<path d="M524 359 c-4 -7 -3 -9 4 -5 5 3 13 0 15 -6 4 -9 6 -10 6 -1 1 17 -16
25 -25 12z"/>
</g>
</svg>
