<?xml version="1.0" standalone="no"?>
<!DOCTYPE svg PUBLIC "-//W3C//DTD SVG 20010904//EN"
 "http://www.w3.org/TR/2001/REC-SVG-20010904/DTD/svg10.dtd">
<svg version="1.0" xmlns="http://www.w3.org/2000/svg"
 width="500.000000pt" height="500.000000pt" viewBox="0 0 500.000000 500.000000"
 preserveAspectRatio="xMidYMid meet">

<g transform="translate(0.000000,500.000000) scale(0.100000,-0.100000)"
fill="#000000" stroke="none">
<path d="M2235 3998 c-349 -376 -559 -591 -759 -776 -146 -134 -201 -180 -207
-170 -5 7 -9 36 -9 65 0 61 -15 76 -43 42 -18 -22 -18 -34 -12 -164 7 -145 0
-186 -10 -55 -15 203 -19 230 -39 230 -33 0 -37 -26 -28 -172 5 -79 5 -150 1
-158 -6 -10 -9 -1 -10 25 -4 155 -16 296 -26 306 -8 8 -15 5 -27 -14 -13 -19
-18 -59 -21 -172 -3 -81 -7 -150 -10 -153 -3 -3 -5 64 -5 149 0 171 -4 199
-29 199 -15 0 -19 -19 -29 -132 -7 -73 -12 -180 -12 -238 l0 -106 -57 -75
c-31 -42 -74 -89 -95 -104 l-38 -29 52 -45 c29 -25 97 -88 151 -140 89 -87 97
-98 92 -125 -3 -17 -9 -110 -15 -206 -6 -96 -21 -245 -35 -330 -51 -338 -45
-364 82 -345 36 5 55 15 80 43 19 20 37 48 40 61 3 13 -1 121 -10 240 -9 119
-19 268 -22 331 l-5 115 51 -55 c28 -30 137 -156 242 -280 351 -412 532 -603
727 -767 115 -96 259 -193 287 -193 13 0 38 16 60 39 21 21 154 147 295 280
141 133 285 274 320 314 35 39 121 130 191 202 122 123 129 128 123 95 -3 -19
-10 -112 -17 -207 -12 -191 -7 -227 38 -263 43 -33 80 -26 129 25 66 68 69 89
50 331 -9 115 -19 234 -21 264 l-5 55 134 135 c75 73 137 132 140 130 7 -8
-14 -238 -34 -370 -26 -171 -44 -398 -36 -464 18 -139 120 -178 193 -74 39 58
41 134 7 318 -23 127 -27 178 -31 415 l-5 270 76 75 c42 41 76 78 76 83 0 4
-26 32 -57 61 l-58 54 48 55 c64 76 77 110 77 210 0 165 -61 319 -149 378
-105 69 -179 11 -255 -199 -14 -40 -26 -86 -26 -103 0 -16 -4 -29 -8 -29 -4 0
-33 26 -65 58 l-57 58 0 171 c0 154 -2 173 -19 194 l-20 24 -38 -20 c-46 -24
-80 -82 -90 -155 l-8 -53 -326 334 c-180 184 -373 388 -430 454 -126 147 -233
255 -252 255 -8 0 -99 -91 -202 -202z m382 -8 l54 -65 -51 -48 -52 -47 -90 82
c-49 46 -105 96 -123 111 l-35 29 58 64 57 64 64 -63 c35 -34 88 -91 118 -127z
m-183 -72 l115 -107 -65 -48 c-36 -26 -94 -69 -129 -94 l-63 -47 -96 97 -96
96 98 107 c53 59 102 106 109 105 6 -1 63 -50 127 -109z m484 -262 c1 -6 -15
-29 -37 -50 l-41 -40 -107 104 c-60 57 -117 112 -128 122 -19 18 -19 19 30 68
l49 50 116 -122 c63 -66 116 -126 118 -132z m-678 -74 c-19 -15 -66 -54 -103
-87 -38 -33 -83 -68 -100 -77 l-32 -17 -77 76 -77 76 116 124 117 124 95 -96
96 -95 -35 -28z m557 -4 l23 -24 -53 -45 c-90 -76 -79 -72 -144 -55 -32 8 -86
18 -121 22 -59 6 -66 10 -129 68 l-66 61 129 96 129 96 105 -98 c58 -53 115
-108 127 -121z m263 -59 l113 -120 -39 -40 -38 -39 -117 116 -116 116 41 43
c23 24 42 44 42 45 1 0 52 -54 114 -121z m-710 16 l54 -55 -84 0 c-79 0 -122
-6 -178 -24 -18 -6 -13 2 20 31 56 51 121 103 128 103 3 0 30 -25 60 -55z
m-380 -147 c0 -3 -35 -25 -77 -48 -42 -24 -107 -65 -144 -91 -37 -27 -70 -49
-74 -49 -4 0 -30 16 -57 36 l-50 37 134 134 133 134 67 -73 c37 -40 68 -76 68
-80z m995 30 l116 -111 -22 -24 c-27 -27 -42 -29 -60 -6 -25 30 -158 111 -212
129 -28 9 -56 19 -61 22 -11 6 93 102 112 102 6 0 64 -50 127 -112z m-410 26
c142 -25 265 -69 347 -123 181 -121 378 -394 440 -608 20 -67 23 -101 22 -238
0 -154 -1 -163 -33 -255 -115 -333 -326 -551 -603 -625 -358 -95 -603 -88
-829 25 -234 118 -397 320 -469 583 -17 61 -21 109 -23 273 -2 195 -1 201 26
279 56 160 122 280 199 361 117 123 359 271 523 319 98 29 264 33 400 9z m885
-326 c0 -9 -12 -30 -26 -47 l-26 -31 -132 127 c-72 69 -133 131 -135 137 -2 5
14 25 35 43 l39 32 123 -122 c67 -67 122 -129 122 -139z m154 155 c3 -42 6
-284 6 -538 l0 -462 -31 -7 c-17 -3 -35 -4 -39 -1 -10 6 -54 192 -71 300 -20
124 -17 438 5 569 21 129 29 152 64 189 45 47 58 38 66 -50z m-306 -168 c39
-38 72 -74 72 -80 0 -6 -19 -30 -43 -53 l-43 -42 -18 30 c-29 50 -161 223
-190 249 l-26 25 27 28 27 28 61 -57 c33 -32 93 -89 133 -128z m-1686 11 c-31
-34 -75 -95 -96 -136 -21 -41 -41 -77 -43 -79 -5 -7 -144 132 -141 140 2 4 54
55 116 113 l113 106 55 -41 54 -41 -58 -62z m2430 64 c101 -84 161 -357 103
-470 -10 -19 -39 -59 -66 -87 -54 -60 -76 -116 -84 -218 -4 -38 -8 -80 -11
-92 -9 -44 -22 -22 -29 45 -11 121 -24 160 -78 231 -100 131 -123 252 -73 397
71 210 145 270 238 194z m-2772 -276 c12 -100 12 -118 -3 -180 -11 -41 -29
-83 -46 -104 -56 -70 -71 -112 -71 -200 0 -57 -4 -86 -14 -96 -8 -8 -17 -14
-19 -14 -3 0 -7 39 -9 88 -3 79 -6 93 -35 138 -65 101 -78 152 -76 314 1 80 6
168 11 195 8 42 10 27 11 -97 1 -152 4 -162 41 -138 12 7 16 39 18 160 4 172
22 198 23 32 0 -138 9 -186 33 -190 10 -2 23 2 27 10 9 13 3 228 -7 278 -4 16
-2 21 4 15 5 -5 15 -66 21 -133 12 -126 23 -166 44 -159 8 2 13 51 16 158 3
122 6 141 11 94 4 -33 13 -110 20 -171z m2167 109 c-3 -3 -11 -2 -17 2 -8 5
-7 11 2 22 12 15 13 14 16 -1 2 -10 1 -20 -1 -23z m-2049 -69 l74 -75 -22 -59
c-12 -32 -42 -82 -67 -111 -91 -107 -186 -209 -194 -209 -12 0 21 71 48 100
61 68 87 203 64 335 -9 51 -9 70 0 81 6 8 14 14 17 14 3 0 39 -34 80 -76z
m2044 -146 c2 -98 1 -178 -3 -178 -16 0 -47 51 -54 87 -3 21 -22 76 -42 121
l-36 84 49 49 c46 47 49 48 65 32 14 -15 18 -46 21 -195z m265 100 c66 -69 70
-87 26 -130 l-34 -33 -29 35 c-27 31 -29 42 -30 108 0 39 4 72 8 72 4 0 31
-24 59 -52z m82 -185 c11 -32 41 -85 66 -118 43 -57 55 -81 37 -73 -12 4 -172
187 -172 195 0 6 41 53 45 53 1 0 12 -26 24 -57z m-127 -15 l-22 -22 0 44 0
44 22 -22 22 -22 -22 -22z m123 -95 c44 -52 81 -98 83 -101 1 -4 -28 -38 -65
-74 l-68 -68 -48 41 -47 41 0 101 c0 96 1 102 27 129 15 15 29 28 32 27 3 0
42 -43 86 -96z m-2380 -102 l0 -190 -32 25 c-18 13 -50 36 -70 51 -21 15 -53
37 -71 51 l-32 23 92 100 c51 55 97 107 101 115 4 8 9 14 10 14 1 0 2 -85 2
-189z m-396 140 l11 -35 -25 24 c-19 18 -22 26 -13 37 13 16 12 17 27 -26z
m10 -66 c54 -56 81 -107 81 -148 0 -25 -71 -92 -91 -85 -6 2 -48 37 -95 78
l-84 75 25 18 c13 10 40 40 60 67 20 28 40 50 44 50 5 0 31 -25 60 -55z m2443
-41 c3 -26 -1 -39 -18 -55 l-21 -20 -7 38 c-3 21 -6 56 -6 77 l0 39 24 -22
c13 -13 26 -38 28 -57z m656 -39 l47 -45 -54 -51 c-50 -47 -54 -49 -72 -33
-19 17 -19 28 3 127 5 26 14 47 20 47 5 0 30 -20 56 -45z m-200 -39 c14 -19
20 -48 25 -118 5 -82 4 -95 -13 -112 -21 -22 -15 -25 -123 69 l-57 49 67 68
c37 37 71 68 75 68 3 0 15 -11 26 -24z m-416 -108 c36 -137 36 -173 1 -210
-15 -16 -32 -28 -37 -28 -6 0 -30 19 -54 41 l-43 41 20 81 c12 44 21 94 21
111 0 28 47 93 58 81 3 -3 18 -55 34 -117z m-2195 5 c94 -67 103 -77 111 -116
l9 -42 -74 -75 -73 -75 -40 45 -39 45 -1 98 c0 58 -4 97 -10 97 -5 0 -10 25
-10 56 0 41 3 53 13 48 6 -4 58 -40 114 -81z m2378 -43 c-16 -16 -32 -30 -37
-30 -4 0 -8 30 -8 67 l0 68 37 -37 37 -38 -29 -30z m-2590 -48 c-3 -3 -19 8
-36 24 l-30 29 33 27 33 27 3 -51 c2 -28 1 -53 -3 -56z m2940 79 c3 -5 1 -12
-5 -16 -5 -3 -10 1 -10 9 0 18 6 21 15 7z m-146 -151 c1 -3 -48 -55 -109 -115
l-110 -110 0 150 0 149 32 33 31 32 78 -67 c43 -37 78 -69 78 -72z m-2754 68
c-3 -18 -12 -130 -20 -248 -8 -118 -25 -285 -39 -370 -29 -170 -33 -272 -13
-288 6 -6 28 -12 47 -15 20 -3 12 -4 -20 -3 l-55 1 -3 56 c-2 31 8 127 22 215
26 163 29 189 46 449 13 184 20 235 32 235 5 0 6 -15 3 -32z m2852 -116 c-4
-65 -18 -194 -32 -287 -16 -101 -28 -237 -32 -335 -5 -162 -5 -166 19 -200 13
-19 35 -40 48 -47 24 -12 24 -13 -12 -13 -34 0 -40 4 -59 42 -21 40 -21 52
-16 203 4 88 18 237 32 330 13 94 28 227 31 298 4 73 11 127 17 127 7 0 8 -42
4 -118z m-412 56 c-5 -34 -28 -326 -45 -573 -19 -274 -12 -325 53 -344 l32 -9
-42 -1 c-35 -1 -45 3 -59 25 -15 22 -16 45 -11 177 7 155 42 637 52 715 4 23
10 42 15 42 5 0 7 -15 5 -32z m-2111 -114 c16 -41 55 -114 87 -162 l57 -87
-36 -38 c-20 -20 -39 -36 -43 -35 -3 2 -50 55 -104 118 -54 63 -105 123 -113
133 -14 16 -10 22 49 81 35 36 66 65 69 65 3 1 18 -33 34 -75z m1943 40 l45
-37 -128 -128 c-71 -71 -132 -125 -137 -120 -4 4 17 46 47 91 30 46 69 116 87
156 18 41 35 74 37 74 3 0 25 -16 49 -36z m115 -34 c-4 -25 -7 -28 -18 -19
-12 10 -12 15 2 30 22 24 21 24 16 -11z m-12 -175 l-11 -110 -71 -72 -72 -73
-66 72 c-36 39 -67 76 -69 81 -2 6 54 65 125 133 l129 122 22 -22 c22 -21 23
-24 13 -131z m-488 -258 l-161 -161 -47 39 -47 39 49 16 c106 36 223 111 303
194 24 25 49 42 54 39 5 -3 -63 -78 -151 -166z m-1207 -3 c33 -22 79 -47 102
-58 l42 -19 -72 -77 -72 -76 -118 135 c-166 190 -158 174 -112 221 l39 40 66
-64 c36 -35 92 -81 125 -102z m1515 -8 c0 -6 -61 -80 -136 -164 l-136 -152
-47 37 c-26 21 -67 55 -91 75 l-43 37 159 162 159 161 68 -73 c37 -40 67 -77
67 -83z m-536 -124 c25 -23 46 -45 46 -48 0 -8 -128 -173 -164 -211 -16 -18
-34 -33 -39 -33 -11 0 -234 157 -242 170 -3 4 22 33 56 64 51 45 71 57 118 67
31 6 81 17 111 24 30 7 58 13 61 12 4 -1 28 -21 53 -45z m-689 7 c74 -19 104
-33 168 -78 l78 -55 -127 -127 -128 -128 -26 19 c-30 21 -230 234 -230 245 0
4 30 41 67 82 51 57 72 73 87 70 12 -3 62 -15 111 -28z m311 -68 l-48 -49 -58
41 -58 42 76 6 c43 3 90 6 107 7 l29 2 -48 -49z m566 -99 c26 -20 46 -42 45
-48 -3 -16 -203 -204 -217 -204 -6 0 -43 22 -81 49 l-69 48 38 44 c21 24 66
81 101 126 l63 83 37 -30 c20 -17 57 -47 83 -68z m-477 -73 l114 -82 -106
-115 c-57 -63 -112 -130 -121 -149 -9 -18 -19 -33 -23 -33 -10 0 -166 125
-217 173 l-42 41 127 128 c73 73 134 126 141 123 7 -3 64 -41 127 -86z m215
-152 c30 -22 59 -43 63 -47 4 -4 -56 -67 -133 -140 l-142 -134 -32 18 c-17 9
-45 27 -61 40 l-28 23 36 54 c47 71 216 241 231 232 6 -4 36 -25 66 -46z"/>
<path d="M2268 3080 c-121 -21 -264 -96 -353 -186 -105 -107 -169 -298 -139
-411 12 -46 23 -21 17 40 -14 151 74 327 210 419 150 102 298 140 472 120 55
-6 138 -23 183 -37 105 -33 162 -87 221 -207 57 -116 75 -192 75 -318 0 -126
-25 -225 -85 -341 -73 -140 -160 -199 -374 -254 -191 -50 -413 3 -543 128 -70
67 -142 206 -142 274 0 13 -6 23 -14 23 -12 0 -12 -8 0 -60 42 -182 186 -328
379 -386 76 -23 236 -24 320 -1 33 8 101 30 150 48 78 28 98 41 151 93 68 68
129 181 160 296 28 101 24 282 -7 385 -53 174 -146 293 -260 333 -131 46 -299
62 -421 42z"/>
</g>
</svg>
